<svg width="660" height="115" viewBox="0 0 660 115" fill="none" xmlns="http://www.w3.org/2000/svg">
<g clip-path="url(#clip0_27_22)">
<mask id="mask0_27_22" style="mask-type:luminance" maskUnits="userSpaceOnUse" x="0" y="2" width="110" height="111">
<path d="M110 2.5H0V112.5H110V2.5Z" fill="white"/>
</mask>
<g mask="url(#mask0_27_22)">
<path d="M110 2.5H0V112.5H110V2.5Z" fill="white"/>
<path d="M55.4774 -70.8352L-26.0179 10.9311L53.0077 89.6948L134.503 7.92851L55.4774 -70.8352Z" fill="#11AA8E"/>
<path d="M22.279 37.5095L11.4751 48.3132L52.8901 90.5L96.8773 46.5128L117.971 67.6061V-12.9088L44.9159 60.1462L22.279 37.5095Z" fill="#030915"/>
<path d="M52.7094 104.751L-4.12524 47.9157V117.979H114.934V82.2126L95.0905 62.3693L52.7094 104.751Z" fill="#11AA8E"/>
<path d="M95.0852 62.3813L67.6129 89.8535L105.66 127.9L133.132 100.428L95.0852 62.3813Z" fill="#030917"/>
<path d="M11.7334 63.7333L8.80004 60.8L7.33337 66.3L11.7334 63.7333Z" fill="#030917"/>
</g>
</g>
<path d="M191.744 23.472L190.208 35.568H173.792V90H158.048V35.568H140.864V23.472H191.744ZM233.527 75.216C233.527 77.136 233.783 78.544 234.295 79.44C234.871 80.336 235.767 81.008 236.983 81.456L233.815 91.344C230.679 91.088 228.119 90.416 226.135 89.328C224.151 88.176 222.615 86.384 221.527 83.952C218.199 89.072 213.079 91.632 206.167 91.632C201.111 91.632 197.079 90.16 194.071 87.216C191.063 84.272 189.559 80.432 189.559 75.696C189.559 70.128 191.607 65.872 195.703 62.928C199.799 59.984 205.719 58.512 213.463 58.512H218.647V56.304C218.647 53.296 218.007 51.248 216.727 50.16C215.447 49.008 213.207 48.432 210.007 48.432C208.343 48.432 206.327 48.688 203.959 49.2C201.591 49.648 199.159 50.288 196.663 51.12L193.207 41.136C196.407 39.92 199.671 38.992 202.999 38.352C206.391 37.712 209.527 37.392 212.406 37.392C219.703 37.392 225.047 38.896 228.439 41.904C231.831 44.912 233.527 49.424 233.527 55.44V75.216ZM210.583 80.784C214.039 80.784 216.727 79.152 218.647 75.888V66.864H214.903C211.447 66.864 208.855 67.472 207.127 68.688C205.463 69.904 204.631 71.792 204.631 74.352C204.631 76.4 205.143 78 206.167 79.152C207.255 80.24 208.727 80.784 210.583 80.784ZM260.776 39.024V90H245.608V39.024H260.776ZM253.096 12.144C255.72 12.144 257.864 12.976 259.528 14.64C261.256 16.24 262.12 18.288 262.12 20.784C262.12 23.28 261.256 25.36 259.528 27.024C257.864 28.624 255.72 29.424 253.096 29.424C250.472 29.424 248.328 28.624 246.664 27.024C245 25.36 244.168 23.28 244.168 20.784C244.168 18.288 245 16.24 246.664 14.64C248.328 12.976 250.472 12.144 253.096 12.144ZM286.238 91.632C281.822 91.632 278.366 90.384 275.87 87.888C273.438 85.328 272.222 81.712 272.222 77.04V18.768L287.39 17.136V76.464C287.39 78.576 288.254 79.632 289.982 79.632C290.878 79.632 291.71 79.472 292.478 79.152L295.454 89.904C292.702 91.056 289.63 91.632 286.238 91.632ZM342.29 23.472L340.658 34.704H317.234V50.64H337.682V61.68H317.234V78.672H342.29V90H301.49V23.472H342.29ZM379.477 62.736L395.893 90H378.709L369.877 70.896L361.237 90H344.725L361.141 63.216L346.357 39.024H363.349L370.453 55.344L377.269 39.024H393.397L379.477 62.736ZM429.658 37.392C436.058 37.392 440.826 39.76 443.962 44.496C447.098 49.232 448.666 55.856 448.666 64.368C448.666 69.616 447.834 74.32 446.17 78.48C444.57 82.576 442.234 85.808 439.162 88.176C436.09 90.48 432.506 91.632 428.41 91.632C423.29 91.632 419.162 89.872 416.026 86.352V109.68L400.858 111.312V39.024H414.202L414.97 44.688C416.954 42.192 419.226 40.368 421.786 39.216C424.346 38 426.97 37.392 429.658 37.392ZM423.802 80.496C429.882 80.496 432.922 75.184 432.922 64.56C432.922 58.544 432.25 54.384 430.906 52.08C429.562 49.712 427.546 48.528 424.858 48.528C423.13 48.528 421.498 49.04 419.962 50.064C418.49 51.088 417.178 52.56 416.026 54.48V75.984C418.074 78.992 420.666 80.496 423.802 80.496ZM502.588 63.504C502.588 65.616 502.492 67.44 502.3 68.976H470.716C471.228 73.264 472.444 76.272 474.364 78C476.284 79.728 478.94 80.592 482.332 80.592C484.38 80.592 486.364 80.24 488.284 79.536C490.204 78.768 492.284 77.616 494.524 76.08L500.764 84.528C494.812 89.264 488.188 91.632 480.892 91.632C472.636 91.632 466.3 89.2 461.884 84.336C457.468 79.472 455.26 72.944 455.26 64.752C455.26 59.568 456.188 54.928 458.044 50.832C459.9 46.672 462.62 43.408 466.204 41.04C469.788 38.608 474.076 37.392 479.068 37.392C486.428 37.392 492.188 39.696 496.348 44.304C500.508 48.912 502.588 55.312 502.588 63.504ZM487.708 59.184C487.58 51.376 484.828 47.472 479.452 47.472C476.828 47.472 474.78 48.432 473.308 50.352C471.9 52.272 471.036 55.44 470.716 59.856H487.708V59.184ZM540.964 37.392C545.38 37.392 548.836 38.736 551.332 41.424C553.828 44.112 555.076 47.888 555.076 52.752V90H539.908V55.344C539.908 52.784 539.492 51.024 538.66 50.064C537.892 49.04 536.708 48.528 535.108 48.528C532.036 48.528 529.092 50.736 526.276 55.152V90H511.108V39.024H524.356L525.412 45.072C527.588 42.512 529.924 40.592 532.42 39.312C534.98 38.032 537.828 37.392 540.964 37.392ZM584.467 37.392C588.115 37.392 591.539 37.936 594.739 39.024C597.939 40.112 600.755 41.648 603.187 43.632L597.619 52.176C593.459 49.552 589.267 48.24 585.043 48.24C583.059 48.24 581.523 48.592 580.435 49.296C579.411 49.936 578.899 50.864 578.899 52.08C578.899 53.04 579.123 53.84 579.571 54.48C580.083 55.056 581.075 55.664 582.547 56.304C584.019 56.944 586.291 57.712 589.363 58.608C594.675 60.144 598.611 62.16 601.171 64.656C603.795 67.088 605.107 70.48 605.107 74.832C605.107 78.288 604.115 81.296 602.131 83.856C600.147 86.352 597.427 88.272 593.971 89.616C590.515 90.96 586.675 91.632 582.451 91.632C578.163 91.632 574.163 90.96 570.451 89.616C566.803 88.272 563.699 86.416 561.139 84.048L568.531 75.792C572.819 79.12 577.331 80.784 582.067 80.784C584.371 80.784 586.163 80.368 587.443 79.536C588.787 78.704 589.459 77.52 589.459 75.984C589.459 74.768 589.203 73.808 588.691 73.104C588.179 72.4 587.187 71.76 585.715 71.184C584.243 70.544 581.907 69.776 578.707 68.88C573.651 67.408 569.875 65.36 567.379 62.736C564.883 60.112 563.635 56.848 563.635 52.944C563.635 50 564.467 47.376 566.131 45.072C567.859 42.704 570.291 40.848 573.427 39.504C576.627 38.096 580.307 37.392 584.467 37.392ZM657.369 63.504C657.369 65.616 657.273 67.44 657.081 68.976H625.497C626.009 73.264 627.225 76.272 629.145 78C631.065 79.728 633.721 80.592 637.113 80.592C639.161 80.592 641.145 80.24 643.065 79.536C644.985 78.768 647.065 77.616 649.305 76.08L655.545 84.528C649.593 89.264 642.969 91.632 635.673 91.632C627.417 91.632 621.081 89.2 616.665 84.336C612.249 79.472 610.041 72.944 610.041 64.752C610.041 59.568 610.969 54.928 612.825 50.832C614.681 46.672 617.401 43.408 620.985 41.04C624.569 38.608 628.857 37.392 633.849 37.392C641.209 37.392 646.969 39.696 651.129 44.304C655.289 48.912 657.369 55.312 657.369 63.504ZM642.489 59.184C642.361 51.376 639.609 47.472 634.233 47.472C631.609 47.472 629.561 48.432 628.089 50.352C626.681 52.272 625.817 55.44 625.497 59.856H642.489V59.184Z" fill="white"/>
<defs>
<clipPath id="clip0_27_22">
<rect y="2.5" width="110" height="110" rx="10" fill="white"/>
</clipPath>
</defs>
</svg>
